<svg width="20" height="20" viewBox="0 0 20 20" fill="none" xmlns="http://www.w3.org/2000/svg">
<path d="M10 20C8.61111 20 7.31019 19.7361 6.09722 19.2083C4.88426 18.6806 3.8287 17.9676 2.93056 17.0694C2.03241 16.1713 1.31944 15.1157 0.791667 13.9028C0.263889 12.6898 0 11.3889 0 10C0 8.61111 0.263889 7.31019 0.791667 6.09722C1.31944 4.88426 2.03241 3.8287 2.93056 2.93056C3.8287 2.03241 4.88426 1.31944 6.09722 0.791667C7.31019 0.263889 8.61111 0 10 0C11.5185 0 12.9583 0.324074 14.3194 0.972222C15.6806 1.62037 16.8333 2.53704 17.7778 3.72222V1.11111H20V7.77778H13.3333V5.55556H16.3889C15.6296 4.51852 14.6944 3.7037 13.5833 3.11111C12.4722 2.51852 11.2778 2.22222 10 2.22222C7.83333 2.22222 5.99537 2.97685 4.48611 4.48611C2.97685 5.99537 2.22222 7.83333 2.22222 10C2.22222 12.1667 2.97685 14.0046 4.48611 15.5139C5.99537 17.0231 7.83333 17.7778 10 17.7778C11.9444 17.7778 13.6435 17.1481 15.0972 15.8889C16.5509 14.6296 17.4074 13.037 17.6667 11.1111H19.9444C19.6667 13.6481 18.5787 15.7639 16.6806 17.4583C14.7824 19.1528 12.5556 20 10 20ZM13.1111 14.6667L8.88889 10.4444V4.44444H11.1111V9.55556L14.6667 13.1111L13.1111 14.6667Z" fill="white"/>
</svg>
